# xmcd CD Database Entry
#
# Track frame offsets:
# 150
# 23922
# 41642
# 67425
# 85862
# 100732
# 117532
# 139035
# 159567
# 176972
# 189360
# 201662
#
# Disc length: 2969 seconds
#
# Revision: 1
# Processed by: cddbd v1.4PL0 Copyright (c) Steve Scherf et al.
# Submitted via: tcd 2.0b
#
DISCID=b40b970c
DTITLE=Ronnie Drew - Dirty Rotten Shame
DYEAR=1900
DGENRE=
TTITLE0=Gardiner Street blues
TTITLE1=Eurolations
TTITLE2=Do you want my job?
TTITLE3=The Dunes
TTITLE4=One last cold kiss
TTITLE5=Dirty rotten shame
TTITLE6=Drinkin' in the day
TTITLE7=Viva la Quinte Brigade
TTITLE8=Happy as a baby
TTITLE9=Far off fields
TTITLE10=True Ron Ron
TTITLE11=Brothers in arms
EXTD=
EXTT0=
EXTT1=
EXTT2=
EXTT3=
EXTT4=
EXTT5=
EXTT6=
EXTT7=
EXTT8=
EXTT9=
EXTT10=
EXTT11=
PLAYORDER=
